# xmcd
#
# Track frame offsets:
#	150
#	13819
#	28394
#	41328
#	53986
#	66762
#	79524
#	93415
#	107749
#	120745
#
# Disc length: 1799 seconds
#
# Revision: 1
# Processed by: cddbd v1.4PL0 Copyright (c) Steve Scherf et al.
# Submitted via: audiograbber 1.81.03
#
DISCID=7f07050a
DTITLE=Various Artist - Men of Blues: Midnight Hour Blues
DYEAR=1998
DGENRE=Blues
TTITLE0=Barqecue Bob - Poor Boy A Long Ways From Home
TTITLE1=Frank Stokes - T'an't Nobody's Busines If I Do
TTITLE2=Blind Lemon Jefferson - Black Snake Moan
TTITLE3=Pinetop Smith - Pinetop Blues
TTITLE4=Blind Blake - Police Dog Blues
TTITLE5=Skip Jones - Hard Time Killin' Floor Blues
TTITLE6=Blind Willie McTell - Georgia Rag
TTITLE7=Leroy Carr and Scapper Blackwell - Midnight Hour Blues
TTITLE8=Charley Patton - Stone Pony Blues
TTITLE9=Kokomo Arnold - Milk Cow Blues
EXTD=
EXTT0=
EXTT1=
EXTT2=
EXTT3=
EXTT4=
EXTT5=
EXTT6=
EXTT7=
EXTT8=
EXTT9=
PLAYORDER=
